<svg width="28" height="28" viewBox="0 0 28 28" fill="none" xmlns="http://www.w3.org/2000/svg">
<path d="M14 16.3333C13.7116 16.3333 13.4296 16.4189 13.1898 16.5791C12.95 16.7394 12.7631 16.9671 12.6527 17.2336C12.5423 17.5001 12.5134 17.7933 12.5697 18.0762C12.626 18.3591 12.7649 18.6189 12.9688 18.8229C13.1728 19.0268 13.4326 19.1657 13.7155 19.222C13.9984 19.2783 14.2916 19.2494 14.5581 19.139C14.8246 19.0286 15.0523 18.8417 15.2126 18.6019C15.3728 18.3621 15.4583 18.0801 15.4583 17.7917C15.4583 17.4049 15.3047 17.034 15.0312 16.7605C14.7577 16.487 14.3868 16.3333 14 16.3333ZM14 14.5833C14.3094 14.5833 14.6062 14.4604 14.825 14.2416C15.0438 14.0228 15.1667 13.7261 15.1667 13.4167V9.91668C15.1667 9.60726 15.0438 9.31051 14.825 9.09172C14.6062 8.87293 14.3094 8.75001 14 8.75001C13.6906 8.75001 13.3938 8.87293 13.175 9.09172C12.9563 9.31051 12.8333 9.60726 12.8333 9.91668V13.4167C12.8333 13.7261 12.9563 14.0228 13.175 14.2416C13.3938 14.4604 13.6906 14.5833 14 14.5833ZM14 2.33334C11.6926 2.33334 9.43692 3.01758 7.51835 4.29953C5.59977 5.58148 4.10443 7.40356 3.22141 9.53537C2.33838 11.6672 2.10734 14.013 2.55751 16.2761C3.00767 18.5392 4.11881 20.618 5.75042 22.2496C7.38203 23.8812 9.46084 24.9923 11.7239 25.4425C13.9871 25.8927 16.3328 25.6616 18.4646 24.7786C20.5964 23.8956 22.4185 22.4002 23.7005 20.4817C24.9824 18.5631 25.6667 16.3075 25.6667 14C25.6633 10.9069 24.433 7.94137 22.2458 5.75418C20.0586 3.56699 17.0932 2.33674 14 2.33334ZM14 23.3333C12.154 23.3333 10.3495 22.786 8.81468 21.7604C7.27982 20.7348 6.08354 19.2772 5.37713 17.5717C4.67071 15.8663 4.48588 13.9897 4.846 12.1792C5.20613 10.3687 6.09505 8.70564 7.40034 7.40035C8.70563 6.09506 10.3687 5.20614 12.1792 4.84601C13.9896 4.48589 15.8663 4.67072 17.5717 5.37713C19.2772 6.08355 20.7348 7.27983 21.7604 8.81469C22.7859 10.3495 23.3333 12.1541 23.3333 14C23.3302 16.4744 22.3459 18.8466 20.5963 20.5963C18.8466 22.3459 16.4744 23.3303 14 23.3333Z" fill="#EB5757"/>
</svg>
