<svg width="32" height="32" viewBox="0 0 32 32" fill="none" xmlns="http://www.w3.org/2000/svg">
<path d="M16.0001 9.508C15.1475 9.508 14.3033 9.67592 13.5157 10.0022C12.728 10.3284 12.0124 10.8066 11.4095 11.4095C10.8067 12.0123 10.3285 12.728 10.0022 13.5156C9.67598 14.3033 9.50806 15.1475 9.50806 16C9.50806 16.8525 9.67598 17.6967 10.0022 18.4844C10.3285 19.272 10.8067 19.9877 11.4095 20.5905C12.0124 21.1934 12.728 21.6716 13.5157 21.9978C14.3033 22.3241 15.1475 22.492 16.0001 22.492C17.7218 22.492 19.3731 21.808 20.5906 20.5905C21.8081 19.3731 22.4921 17.7218 22.4921 16C22.4921 14.2782 21.8081 12.627 20.5906 11.4095C19.3731 10.192 17.7218 9.508 16.0001 9.508ZM11.5081 16C11.5081 14.8087 11.9813 13.6661 12.8237 12.8237C13.6661 11.9813 14.8087 11.508 16.0001 11.508C17.1914 11.508 18.334 11.9813 19.1764 12.8237C20.0188 13.6661 20.4921 14.8087 20.4921 16C20.4921 17.1914 20.0188 18.3339 19.1764 19.1763C18.334 20.0187 17.1914 20.492 16.0001 20.492C14.8087 20.492 13.6661 20.0187 12.8237 19.1763C11.9813 18.3339 11.5081 17.1914 11.5081 16Z" fill="#C1162A"/>
<path d="M19.5915 2.6855C18.5375 -0.894496 13.4615 -0.894496 12.4075 2.6855L12.2195 3.3235C12.1459 3.57341 12.0173 3.80367 11.8431 3.99742C11.669 4.19117 11.4536 4.34348 11.213 4.44321C10.9723 4.54293 10.7124 4.58753 10.4522 4.57374C10.192 4.55995 9.93827 4.48811 9.70949 4.3635L9.12549 4.0435C5.84549 2.2595 2.25949 5.8475 4.04549 9.1255L4.36349 9.7095C4.4881 9.93829 4.55993 10.1921 4.57372 10.4522C4.58752 10.7124 4.54292 10.9723 4.44319 11.213C4.34347 11.4537 4.19115 11.669 3.9974 11.8431C3.80366 12.0173 3.57339 12.1459 3.32349 12.2195L2.68549 12.4075C-0.894512 13.4615 -0.894512 18.5375 2.68549 19.5915L3.32349 19.7795C3.57339 19.8531 3.80366 19.9817 3.9974 20.1559C4.19115 20.33 4.34347 20.5453 4.44319 20.786C4.54292 21.0267 4.58752 21.2866 4.57372 21.5468C4.55993 21.8069 4.4881 22.0607 4.36349 22.2895L4.04349 22.8735C2.25949 26.1535 5.84549 29.7415 9.12549 27.9535L9.70949 27.6355C9.93827 27.5109 10.192 27.4391 10.4522 27.4253C10.7124 27.4115 10.9723 27.4561 11.213 27.5558C11.4536 27.6555 11.669 27.8078 11.8431 28.0016C12.0173 28.1953 12.1459 28.4256 12.2195 28.6755L12.4075 29.3135C13.4615 32.8935 18.5375 32.8935 19.5915 29.3135L19.7795 28.6755C19.8531 28.4256 19.9817 28.1953 20.1559 28.0016C20.33 27.8078 20.5453 27.6555 20.786 27.5558C21.0267 27.4561 21.2866 27.4115 21.5468 27.4253C21.8069 27.4391 22.0607 27.5109 22.2895 27.6355L22.8735 27.9555C26.1535 29.7415 29.7415 26.1515 27.9535 22.8735L27.6355 22.2895C27.5109 22.0607 27.439 21.8069 27.4253 21.5468C27.4115 21.2866 27.4561 21.0267 27.5558 20.786C27.6555 20.5453 27.8078 20.33 28.0016 20.1559C28.1953 19.9817 28.4256 19.8531 28.6755 19.7795L29.3135 19.5915C32.8935 18.5375 32.8935 13.4615 29.3135 12.4075L28.6755 12.2195C28.4256 12.1459 28.1953 12.0173 28.0016 11.8431C27.8078 11.669 27.6555 11.4537 27.5558 11.213C27.4561 10.9723 27.4115 10.7124 27.4253 10.4522C27.439 10.1921 27.5109 9.93829 27.6355 9.7095L27.9555 9.1255C29.7415 5.8455 26.1515 2.2595 22.8735 4.0455L22.2895 4.3635C22.0607 4.48811 21.8069 4.55995 21.5468 4.57374C21.2866 4.58753 21.0267 4.54293 20.786 4.44321C20.5453 4.34348 20.33 4.19117 20.1559 3.99742C19.9817 3.80367 19.8531 3.57341 19.7795 3.3235L19.5915 2.6855ZM14.3255 3.2515C14.8175 1.5815 17.1815 1.5815 17.6735 3.2515L17.8615 3.8895C18.0195 4.42567 18.2956 4.91968 18.6693 5.3353C19.0431 5.75093 19.5052 6.07763 20.0216 6.29146C20.5381 6.5053 21.0959 6.60084 21.6541 6.57108C22.2122 6.54133 22.7567 6.38703 23.2475 6.1195L23.8295 5.7995C25.3575 4.9695 27.0295 6.6395 26.1975 8.1695L25.8795 8.7535C25.6124 9.24436 25.4584 9.78876 25.429 10.3468C25.3996 10.9049 25.4954 11.4624 25.7094 11.9787C25.9234 12.4949 26.2502 12.9567 26.6658 13.3303C27.0815 13.7038 27.5754 13.9796 28.1115 14.1375L28.7475 14.3255C30.4175 14.8175 30.4175 17.1815 28.7475 17.6735L28.1095 17.8615C27.5733 18.0195 27.0793 18.2956 26.6637 18.6694C26.2481 19.0431 25.9214 19.5052 25.7075 20.0217C25.4937 20.5381 25.3982 21.0959 25.4279 21.6541C25.4577 22.2123 25.612 22.7567 25.8795 23.2475L26.1995 23.8295C27.0295 25.3575 25.3595 27.0295 23.8295 26.1975L23.2475 25.8795C22.7566 25.612 22.212 25.4578 21.6537 25.4282C21.0954 25.3985 20.5375 25.4942 20.0211 25.7083C19.5046 25.9223 19.0425 26.2492 18.6688 26.6651C18.2952 27.0809 18.0193 27.5752 17.8615 28.1115L17.6735 28.7475C17.1815 30.4175 14.8175 30.4175 14.3255 28.7475L14.1375 28.1095C13.9794 27.5736 13.7034 27.0799 13.3298 26.6645C12.9561 26.249 12.4943 25.9225 11.9781 25.7087C11.4619 25.4949 10.9044 25.3992 10.3464 25.4288C9.78848 25.4584 9.24421 25.6124 8.75349 25.8795L8.16949 26.1995C6.64149 27.0295 4.96949 25.3595 5.80149 23.8295L6.11949 23.2475C6.38739 22.7566 6.54199 22.212 6.57194 21.6536C6.60189 21.0951 6.50644 20.5371 6.29258 20.0204C6.07872 19.5037 5.75188 19.0414 5.33605 18.6675C4.92021 18.2935 4.42594 18.0175 3.88949 17.8595L3.25149 17.6715C1.58149 17.1795 1.58149 14.8155 3.25149 14.3235L3.88949 14.1355C4.4251 13.9773 4.91857 13.7014 5.33377 13.3279C5.74898 12.9544 6.07542 12.4928 6.2892 11.9768C6.50297 11.4609 6.59868 10.9037 6.56932 10.3459C6.53996 9.78823 6.38626 9.24415 6.11949 8.7535L5.79949 8.1695C4.96949 6.6415 6.63949 4.9695 8.16949 5.8015L8.75349 6.1195C9.24421 6.38665 9.78848 6.54065 10.3464 6.57021C10.9044 6.59977 11.4619 6.50414 11.9781 6.29034C12.4943 6.07653 12.9561 5.74996 13.3298 5.33455C13.7034 4.91913 13.9794 4.4254 14.1375 3.8895L14.3255 3.2515Z" fill="#C1162A"/>
</svg>
