<svg width="100" height="24" viewBox="0 0 100 24" fill="none" xmlns="http://www.w3.org/2000/svg">
<g clip-path="url(#clip0)">
<path d="M6.54545 17.4545V19.9234H0V17.4545H2.00957V8.26794H0V5.97129H4.53588V17.4545H6.54545ZM3.04306 0C3.48011 0.014341 3.89535 0.194371 4.20456 0.503579C4.51376 0.812786 4.69379 1.22802 4.70813 1.66507C4.71283 1.88502 4.67297 2.10364 4.59096 2.30778C4.50894 2.51192 4.38647 2.69736 4.23091 2.85292C4.07535 3.00848 3.88991 3.13095 3.68577 3.21297C3.48163 3.29498 3.26301 3.33484 3.04306 3.33014C2.8218 3.33992 2.60092 3.30354 2.39448 3.22332C2.18804 3.1431 2.00055 3.0208 1.84394 2.86419C1.68733 2.70758 1.56503 2.52009 1.48481 2.31365C1.40459 2.10721 1.36821 1.88634 1.37799 1.66507C1.37799 1.22347 1.55342 0.79995 1.86568 0.487688C2.17794 0.175427 2.60146 0 3.04306 0V0ZM12.8612 17.8565C13.384 17.8448 13.8961 17.7069 14.3541 17.4545V19.9234C13.6423 20.2131 12.8832 20.3688 12.1148 20.3828C9.5311 20.3828 9.1866 19.0048 9.1866 16.5359V8.26794H7.34928V5.97129H9.1866V4.07656L11.7129 2.00957V5.97129H14.3541V8.26794H11.7129V16.0766C11.7129 17.3397 11.9426 17.8565 12.8612 17.8565Z" fill="#88C8EF"/>
<path d="M22.9092 17.7416C23.8043 17.7462 24.6857 17.5217 25.4695 17.0896C26.2534 16.6575 26.9137 16.032 27.3877 15.2727L29.6269 16.4211C28.9822 17.6332 28.0117 18.641 26.8247 19.3309C25.6377 20.0208 24.2815 20.3652 22.9092 20.3254C18.5456 20.3254 15.7322 17.4545 15.7322 12.9187C15.7322 8.38278 18.6604 5.51196 22.737 5.51196C26.9858 5.51196 29.5695 8.44019 29.5695 13.6077H18.5456C18.603 16.134 20.3255 17.7416 22.9092 17.7416ZM26.6987 11.5981C26.4116 9.1866 24.9762 7.92345 22.6795 7.92345C20.3829 7.92345 18.8901 9.24402 18.7178 11.5981H26.6987ZM31.6365 15.2153H33.8757C34.1054 17.0526 35.4834 18.1435 37.5504 18.1435C39.2729 18.1435 40.3063 17.2823 40.3063 16.2488C40.3063 15.2153 39.4451 14.6986 37.7226 14.2967L35.5982 13.7799C32.8996 13.1483 31.6365 11.9426 31.6365 9.76077C31.6365 7.46412 33.7035 5.56938 36.5169 5.56938C37.8889 5.5492 39.2193 6.04042 40.2489 6.94737V5.91388H42.4307V10.5072H40.2489C40.0767 8.84211 38.6987 7.69378 36.6317 7.69378C35.1389 7.69378 34.2202 8.44019 34.2202 9.5311C34.2202 10.622 35.024 11.0239 36.5169 11.311L38.9284 11.8278C41.5695 12.4019 42.8901 13.6651 42.8901 15.8469C42.8901 18.5455 40.8805 20.3828 37.7226 20.3828C36.329 20.4297 34.9711 19.9359 33.9331 19.0048V19.9809H31.6939V15.2153H31.6365ZM51.9618 8.03828C49.3207 8.03828 47.5982 9.8756 47.5982 12.9187C47.5982 15.9617 49.3207 17.7416 51.9044 17.7416C52.8305 17.7321 53.7354 17.4635 54.5168 16.9663C55.2981 16.4691 55.9246 15.7631 56.3255 14.9282L58.5647 16.0191C58.0192 17.3255 57.0909 18.436 55.9021 19.2046C54.7132 19.9733 53.3196 20.364 51.9044 20.3254C47.713 20.3254 44.7848 17.4545 44.7848 12.9761C44.7848 8.61244 47.713 5.56938 51.5599 5.56938C53.0934 5.55342 54.5741 6.12923 55.6939 7.17703V5.91388H57.9331V11.1388H55.6939C55.1772 9.07177 53.8566 8.03828 51.9618 8.03828ZM67.1197 20.3254C62.9858 20.3254 60.115 17.4545 60.115 12.9187C60.115 8.38278 63.0432 5.51196 67.1197 5.51196C71.1963 5.51196 74.1819 8.44019 74.1819 12.9187C74.1819 17.3971 71.2537 20.3254 67.1197 20.3254ZM71.3686 12.9187C71.3686 9.8756 69.7609 8.09569 67.1197 8.09569C64.4786 8.09569 62.8709 9.8756 62.8709 12.9187C62.8709 15.9617 64.5934 17.7416 67.1197 17.7416C69.6461 17.7416 71.3686 16.0191 71.3686 12.9187Z" fill="#263066"/>
<path d="M77.6268 8.26794H75.6172V5.97129H80.0382V8.72727C81.0143 6.54545 82.3349 5.74162 84.5167 5.74162H85.5502V8.44019C85.2057 8.44019 84.8612 8.38277 84.5167 8.38277C81.3588 8.38277 80.1531 10.2201 80.1531 13.7799V17.4545H82.6794V19.9234H75.6746V17.4545H77.6842L77.6268 8.26794Z" fill="#263066"/>
<path d="M92.4975 17.8565C93.0202 17.8447 93.5324 17.7069 93.9903 17.4545V19.9234C93.2968 20.2071 92.5576 20.3627 91.8085 20.3828C89.2248 20.3828 88.8803 19.0048 88.8803 16.5359V8.26794H87.043V5.97129H88.8803V4.07655L91.4066 2.00957V5.97129H93.9903V8.26794H91.4066V16.0766C91.3492 17.3397 91.5789 17.8565 92.4975 17.8565ZM96.5741 5.91387H99.9042V9.41627H96.5741V5.91387ZM96.6889 16.4211H99.9616V19.9809C99.9616 22.5072 98.8707 23.8278 96.6315 24V22.3923C97.8372 22.1053 98.2392 21.6459 98.2392 20.3828V19.9234H96.7463L96.6889 16.4211Z" fill="#263066"/>
</g>
<defs>
<clipPath id="clip0">
<rect width="99.9617" height="24" fill="white"/>
</clipPath>
</defs>
</svg>
