<svg xmlns="http://www.w3.org/2000/svg" width="28" height="28" viewBox="0 0 28 28"><defs><style>.cls-1{fill:#edd529;}</style></defs><path class="cls-1" d="M14.84,7.92l-5,5L7.91,11a1.1,1.1,0,0,0-.38-.29,1,1,0,0,0-.46-.11,1.09,1.09,0,0,0-.47.08,1,1,0,0,0-.4.26,1.2,1.2,0,0,0-.26.4,1.09,1.09,0,0,0-.08.47,1,1,0,0,0,.11.46,1.1,1.1,0,0,0,.3.38L9,15.41a1,1,0,0,0,.38.25,1.12,1.12,0,0,0,.44.09,1.15,1.15,0,0,0,.82-.34l5.83-5.83a1.22,1.22,0,0,0,.26-.38,1.17,1.17,0,0,0,0-.9,1.22,1.22,0,0,0-.26-.38,1.13,1.13,0,0,0-.82-.34A1.15,1.15,0,0,0,14.84,7.92ZM11.67,0A11.69,11.69,0,0,0,.89,7.2a11.67,11.67,0,1,0,22.44,4.47,11.59,11.59,0,0,0-3.41-8.25A11.7,11.7,0,0,0,11.67,0Zm0,21A9.33,9.33,0,0,1,2.51,9.85,9.34,9.34,0,0,1,15.24,3,9.33,9.33,0,0,1,21,11.67,9.32,9.32,0,0,1,11.67,21Z"/></svg>