<svg width="32" height="32" viewBox="0 0 32 32" fill="none" xmlns="http://www.w3.org/2000/svg">
<path d="M26 5.115H6C5.27091 5.11582 4.57192 5.40582 4.05637 5.92137C3.54082 6.43691 3.25083 7.13591 3.25 7.865V21.865C3.25083 22.5941 3.54082 23.2931 4.05637 23.8086C4.57192 24.3242 5.27091 24.6142 6 24.615H26C26.7291 24.6142 27.4281 24.3242 27.9436 23.8086C28.4592 23.2931 28.7492 22.5941 28.75 21.865V7.865C28.7492 7.13591 28.4592 6.43691 27.9436 5.92137C27.4281 5.40582 26.7291 5.11582 26 5.115ZM27.25 21.865C27.2496 22.1964 27.1178 22.5141 26.8834 22.7484C26.6491 22.9828 26.3314 23.1146 26 23.115H6C5.6686 23.1146 5.35089 22.9828 5.11655 22.7484C4.88222 22.5141 4.7504 22.1964 4.75 21.865V7.865C4.7504 7.5336 4.88222 7.21589 5.11655 6.98155C5.35089 6.74722 5.6686 6.61539 6 6.615H26C26.3314 6.61539 26.6491 6.74722 26.8834 6.98155C27.1178 7.21589 27.2496 7.5336 27.25 7.865V21.865ZM20.75 27.865C20.75 28.0639 20.671 28.2547 20.5303 28.3953C20.3897 28.536 20.1989 28.615 20 28.615H12C11.8011 28.615 11.6103 28.536 11.4697 28.3953C11.329 28.2547 11.25 28.0639 11.25 27.865C11.25 27.6661 11.329 27.4753 11.4697 27.3347C11.6103 27.194 11.8011 27.115 12 27.115H20C20.1989 27.115 20.3897 27.194 20.5303 27.3347C20.671 27.4753 20.75 27.6661 20.75 27.865Z" fill="#C1162A"/>
</svg>
