<svg width="28" height="28" viewBox="0 0 28 28" fill="none" xmlns="http://www.w3.org/2000/svg">
<path d="M17.1733 10.255L12.1683 15.2717L10.2433 13.3467C10.1387 13.2245 10.01 13.1254 9.8653 13.0553C9.72056 12.9853 9.5629 12.946 9.40223 12.9397C9.24156 12.9335 9.08134 12.9606 8.93162 13.0193C8.78191 13.0779 8.64594 13.1669 8.53224 13.2806C8.41854 13.3943 8.32958 13.5303 8.27092 13.68C8.21227 13.8297 8.1852 13.9899 8.1914 14.1506C8.19761 14.3112 8.23696 14.4689 8.30699 14.6136C8.37701 14.7584 8.4762 14.8871 8.59833 14.9917L11.34 17.745C11.449 17.8531 11.5783 17.9387 11.7204 17.9967C11.8626 18.0548 12.0148 18.0842 12.1683 18.0833C12.4744 18.0821 12.7677 17.9605 12.985 17.745L18.8183 11.9117C18.9277 11.8032 19.0145 11.6742 19.0737 11.532C19.1329 11.3898 19.1634 11.2374 19.1634 11.0833C19.1634 10.9293 19.1329 10.7768 19.0737 10.6347C19.0145 10.4925 18.9277 10.3635 18.8183 10.255C18.5997 10.0377 18.3041 9.91575 17.9958 9.91575C17.6876 9.91575 17.3919 10.0377 17.1733 10.255ZM14 2.33334C11.6926 2.33334 9.43692 3.01758 7.51835 4.29953C5.59977 5.58148 4.10443 7.40356 3.22141 9.53537C2.33838 11.6672 2.10734 14.013 2.55751 16.2761C3.00767 18.5392 4.11881 20.618 5.75042 22.2496C7.38203 23.8812 9.46083 24.9923 11.7239 25.4425C13.9871 25.8927 16.3328 25.6616 18.4646 24.7786C20.5964 23.8956 22.4185 22.4002 23.7005 20.4817C24.9824 18.5631 25.6667 16.3075 25.6667 14C25.6667 12.4679 25.3649 10.9508 24.7786 9.53537C24.1923 8.1199 23.3329 6.83378 22.2496 5.75043C21.1662 4.66708 19.8801 3.80772 18.4646 3.22142C17.0492 2.63511 15.5321 2.33334 14 2.33334ZM14 23.3333C12.154 23.3333 10.3495 22.786 8.81468 21.7604C7.27982 20.7348 6.08354 19.2772 5.37712 17.5717C4.67071 15.8663 4.48588 13.9897 4.846 12.1792C5.20613 10.3687 6.09505 8.70564 7.40034 7.40035C8.70563 6.09506 10.3687 5.20614 12.1792 4.84601C13.9896 4.48589 15.8663 4.67072 17.5717 5.37713C19.2772 6.08355 20.7348 7.27983 21.7604 8.81469C22.7859 10.3495 23.3333 12.1541 23.3333 14C23.3333 16.4754 22.35 18.8493 20.5997 20.5997C18.8493 22.35 16.4754 23.3333 14 23.3333Z" fill="#27AE60"/>
</svg>
