<svg width="32" height="32" viewBox="0 0 32 32" fill="none" xmlns="http://www.w3.org/2000/svg">
<path d="M0 15.4801V15.4348C0.401674 10.1846 2.27615 6.24699 5.53417 3.75769C8.74756 1.22312 12.2287 0.00109519 16.0223 0.00109519C19.9944 -0.0441649 23.6987 1.31364 27.0014 4.02925C30.3487 6.69959 32 10.6825 32 15.8421V16.159C32 21.3639 30.3487 25.2562 27.0014 27.9266C23.6541 30.6422 19.9498 32 15.9777 32H15.7992C11.9163 31.9547 8.34589 30.5969 5.04324 27.8813C1.74059 25.211 0.0446304 21.0923 0 15.4801ZM15.0404 8.37422V1.22312H13.9693C13.7462 1.49468 13.5676 1.8115 13.3891 2.08306C13.2106 2.35462 13.0321 2.62618 12.8536 2.943C12.675 3.21456 12.4519 3.57664 12.318 3.84821C12.1395 4.11977 12.0056 4.39133 11.8717 4.70815C11.6039 5.16075 11.3808 5.61335 11.2022 6.02069C10.9791 6.42803 10.8006 6.83537 10.6667 7.19745C10.9344 7.37849 11.2469 7.6048 11.6039 7.74058C12.0056 7.87636 12.4073 8.01214 12.8089 8.10266C13.2552 8.19318 13.6569 8.23844 14.0139 8.2837C14.4156 8.32896 14.7727 8.37422 15.0404 8.37422ZM16.9149 1.22312V8.32896C17.1381 8.32896 17.4059 8.37422 17.6736 8.32896C17.9414 8.32896 18.2538 8.2837 18.5216 8.23844C19.0126 8.14792 19.5927 8.01214 20.0391 7.87636C20.53 7.69532 20.9763 7.46902 21.2887 7.19745C20.7531 5.88491 20.1729 4.84393 19.5927 3.84821C19.0126 2.85248 18.3431 1.99254 17.629 1.26838V1.22312H16.9149ZM12.0948 1.63046V1.5852C11.7824 1.72098 11.47 1.94728 11.113 2.08306C10.8006 2.21884 10.3989 2.39988 10.0865 2.58092C9.46165 2.89774 8.83682 3.25982 8.21199 3.66717C7.6318 4.07451 7.0516 4.52711 6.56067 4.97971C6.73919 5.16075 6.96234 5.34179 7.14086 5.47757C7.31939 5.61335 7.54254 5.79439 7.76569 5.97543C7.94421 6.06595 8.16736 6.20173 8.39052 6.38277C8.61367 6.51855 8.88145 6.69959 9.14923 6.88063C9.50628 6.06595 9.86332 5.20601 10.3096 4.43659C10.7559 3.6219 11.2469 2.85248 11.7378 2.17358C11.7824 2.08306 11.8271 1.99254 11.9163 1.90202C11.9609 1.85676 12.0056 1.72098 12.0948 1.63046ZM25.7517 4.97971V4.93445C24.636 4.07451 23.6541 3.35034 22.6722 2.89774C21.6904 2.44514 20.7085 1.99254 19.8159 1.63046C20.53 2.35462 21.1548 3.25982 21.5565 4.11977C22.0028 5.02497 22.4491 5.97543 22.8061 6.88063C22.9847 6.79011 23.2078 6.69959 23.4756 6.51855C23.6987 6.38277 24.0112 6.24699 24.2789 6.11121C24.5467 5.93017 24.7699 5.74913 25.0377 5.56809C25.3054 5.34179 25.5732 5.16075 25.7517 4.97971ZM24.993 15.0727H30.1255C30.1255 13.3981 29.7685 11.814 29.099 10.1846C28.4742 8.60052 27.5816 7.28797 26.4658 6.15647V6.11121C26.2427 6.47329 25.9303 6.79011 25.6179 7.01641C25.2608 7.24271 24.9484 7.42376 24.5914 7.6048C24.3682 7.74058 24.145 7.92162 23.9219 8.01214C23.6987 8.14792 23.3863 8.23844 23.1632 8.37422C23.3417 8.7363 23.5202 9.14364 23.6987 9.50572C23.8326 9.91306 24.0558 10.3657 24.145 10.773C24.4128 11.4972 24.5914 12.2666 24.7699 13.036C24.9038 13.7149 24.993 14.4391 24.993 15.0727ZM8.83682 8.37422V8.32896C8.47978 8.14792 8.0781 8.01214 7.76569 7.8311C7.45328 7.6048 7.14086 7.37849 6.87308 7.19745C6.6053 7.06167 6.33752 6.88063 6.11437 6.69959C5.89121 6.51855 5.71269 6.33751 5.53417 6.15647C4.37378 7.28797 3.5258 8.55526 2.99024 10.0488C2.41004 11.5424 2.00837 13.2171 1.82985 15.0275H7.31939C7.31939 13.7602 7.49791 12.5381 7.81032 11.3161C8.0781 10.0488 8.47978 9.09838 8.83682 8.37422ZM15.0404 15.0275V9.82254C14.6834 9.8678 14.2371 9.8678 13.8354 9.82254C13.3891 9.77728 12.9428 9.6415 12.5411 9.50572C12.1841 9.4152 11.7378 9.32468 11.3808 9.1889C10.9791 9.09838 10.5774 8.91734 10.265 8.7363C9.99721 9.1889 9.77406 9.73202 9.59554 10.3204C9.37238 10.8635 9.23849 11.4519 9.1046 11.995C9.01534 12.5381 8.97071 13.1265 8.92608 13.6244C8.88145 14.1223 8.83682 14.6201 8.83682 15.0275H15.0404ZM16.9149 9.91306V15.0275H23.5202C23.5202 14.7559 23.5202 14.4391 23.4756 14.077C23.3863 13.7602 23.3417 13.3528 23.2971 12.9907C23.1632 12.4476 23.0293 11.8592 22.8508 11.3161C22.6722 10.8183 22.4937 10.3204 22.2706 9.91306C22.1813 9.68676 22.0921 9.4152 22.0028 9.23416C21.8689 9.00786 21.735 8.87208 21.6457 8.7363C21.1548 9.09838 20.4854 9.32468 19.682 9.50572C18.9233 9.68676 18.0307 9.8678 17.2273 9.91306H16.9149ZM7.31939 16.521H1.82985C1.82985 17.2905 1.96374 18.1504 2.18689 19.1914C2.41004 20.2776 2.85635 21.2734 3.34728 22.3596C3.57043 22.9027 3.83821 23.4458 4.106 23.989C4.41841 24.4868 4.77545 25.0299 5.1325 25.5278C5.40028 25.3468 5.66806 25.211 5.89121 25.0752C6.159 24.9394 6.47141 24.7584 6.73919 24.6226C7.0516 24.4868 7.36402 24.351 7.72106 24.17C8.03347 24.0342 8.43515 23.8532 8.83682 23.6721C8.47978 22.5406 8.0781 21.4544 7.81032 20.2324C7.49791 19.0556 7.31939 17.8788 7.31939 16.5663V16.521ZM15.0404 21.8165V16.521H8.83682C8.83682 16.8831 8.88145 17.4262 8.97071 17.9694C9.01534 18.5125 9.14923 19.1009 9.23849 19.6892C9.41702 20.3229 9.55091 20.9565 9.72943 21.4997C9.90795 22.0428 10.0865 22.4954 10.265 22.9027C11.0683 22.5859 11.8717 22.3596 12.4073 22.2238C12.9874 22.0428 13.523 21.907 14.0586 21.8617H14.5495C14.728 21.8165 14.9066 21.8165 15.0404 21.8165ZM16.9149 16.521V21.7712C17.2273 21.8165 17.5844 21.8617 17.9414 21.907C18.3431 21.9523 18.834 22.0428 19.2357 22.1333L19.9052 22.2691C20.1283 22.3596 20.3961 22.4049 20.6192 22.4501C20.887 22.5406 21.1548 22.5859 21.4226 22.6764C21.6457 22.7669 21.8689 22.8122 22.0474 22.9027C22.6276 21.4091 22.9847 20.1871 23.2078 19.1461C23.431 18.1504 23.5202 17.2905 23.5202 16.5663V16.521H16.9149ZM30.1255 16.5663V16.521H24.993V16.7926C24.9484 17.6525 24.8145 18.6483 24.636 19.6892C24.4575 20.685 24.0558 21.8617 23.5202 23.3101C24.2343 23.6721 24.9038 24.0342 25.4393 24.3963C25.9749 24.7584 26.4658 25.1657 26.8229 25.5278C27.5816 24.7584 28.251 23.7174 28.8312 22.3596C29.4114 21.0471 29.8131 19.6892 30.0363 18.2409C30.0809 17.9694 30.0809 17.6978 30.1255 17.4262V16.5663ZM15.0404 30.3254V23.2648C13.9247 23.4458 12.9874 23.6721 12.2734 23.8532C11.5593 24.0342 11.0237 24.2153 10.6667 24.3963C10.9344 25.0752 11.2022 25.6636 11.47 26.2067C11.7378 26.7046 12.0502 27.2477 12.318 27.7003C12.4073 27.8813 12.5858 28.0624 12.7197 28.2887C12.8536 28.4697 12.9428 28.696 13.0767 28.8771C13.2106 29.1034 13.3445 29.3749 13.4784 29.6465C13.6569 29.8728 13.7908 30.1443 13.9693 30.3254H15.0404ZM16.9149 30.3254H17.9414C18.3431 30.0086 18.7448 29.556 19.0572 29.0581C19.4142 28.5602 19.8159 27.9718 20.0837 27.474C20.3961 26.8856 20.7085 26.3425 20.9763 25.7994C21.2441 25.2562 21.4672 24.7584 21.6457 24.3963C21.1548 24.2153 20.4854 24.0342 19.8159 23.8532C19.1464 23.6721 18.2092 23.4911 16.9149 23.3101V30.3254ZM25.7517 26.614V26.5688C25.6625 26.433 25.484 26.252 25.3501 26.1162C25.2162 25.9804 24.993 25.7994 24.7699 25.6636C24.5914 25.5278 24.3682 25.392 24.1004 25.2562C23.8326 25.1205 23.4756 24.9394 23.1632 24.7584C22.9847 25.1205 22.6722 25.7541 22.2259 26.614C21.8243 27.474 21.1102 28.515 20.2176 29.6465C21.3333 29.4654 22.3152 29.0581 23.2078 28.515C24.1897 28.0171 25.0377 27.3382 25.7517 26.614ZM9.14923 25.1657V25.1205C8.83682 25.3015 8.34589 25.5278 7.85495 25.7541C7.31939 25.9804 6.73919 26.252 6.20363 26.614C6.51604 26.8856 6.82845 27.1572 7.09623 27.3382C7.36402 27.5645 7.67643 27.7455 7.94421 27.9266C8.43515 28.2434 9.01534 28.5602 9.59554 28.8318C10.1757 29.1034 10.8898 29.3749 11.7824 29.6465C11.47 29.2844 11.2469 28.8318 11.0237 28.4697C10.8006 28.1076 10.5328 27.7455 10.3096 27.3835C10.0865 27.0214 9.90795 26.614 9.72943 26.252C9.50628 25.8899 9.32775 25.5278 9.14923 25.1657Z" fill="#C1162A"/>
</svg>
